Coordinates
version=1
nRows=11
nColumns=33
inDegrees=yes

Units are S.I. units (second, meters, Newtons, ...)
Angles are in degrees.

endheader
time	ground_thorax_rot_x	ground_thorax_rot_y	ground_thorax_rot_z	ground_thorax_tx	ground_thorax_ty	ground_thorax_tz	clav_prot_r	clav_elev_r	scapula_abduction_r	scapula_elevation_r	scapula_upward_rot_r	scapula_winging_r	shoulder_elv_r	plane_of_elev_r	axial_rot_r	elbow_flexion_r	pro_sup_r	wrist_flex_r	wrist_dev_r	clav_prot_l	clav_elev_l	scapula_abduction_l	scapula_elevation_l	scapula_upward_rot_l	scapula_winging_l	shoulder_elv_l	plane_of_elev_l	axial_rot_l	elbow_flexion_l	pro_sup_l	wrist_flex_l	wrist_dev_l	
5.6600	90.000000	-90.000000	-90.000000	4.147036	803.991946	7.057151	-45.000000	8.028949	-44.845671	19.322968	-45.000000	-5510.208062	-1700.483711	23.241469	-149.984682	2535.492206	-172.351297	9.319017	4.485146	28.849757	41.543738	-45.000000	-45.000000	8.292770	758.368949	-3125.539112	9.266361	-161.130218	364.961253	18.281760	13.689095	-18.076684	
5.6700	90.000000	-90.000000	-90.000000	4.574380	803.706939	7.643384	-45.000000	7.944681	-44.670618	19.292708	-45.000000	-5510.239128	-1700.613288	23.187916	-150.769228	2535.221956	-183.301870	9.833754	4.873310	28.788351	41.644001	-45.000000	-45.000000	8.211201	758.590320	-3125.601258	9.275516	-160.915164	364.856055	18.634255	13.524797	-18.036410	
5.6800	90.000000	-90.000000	-90.000000	4.909439	803.442374	8.201986	-45.000000	7.859795	-44.514610	19.277965	-45.000000	-5510.239511	-1700.922215	23.082862	-152.351103	2534.542824	-204.365704	10.741669	5.761795	28.718651	41.843398	-45.000000	-45.000000	8.139663	758.905447	-3125.706414	9.406779	-160.586028	364.794084	19.273643	13.298604	-18.019810	
5.6900	90.000000	-90.000000	-90.000000	5.049880	803.231136	8.704800	-45.000000	7.774549	-44.335024	19.255125	-45.000000	-5510.256175	-1701.334066	22.944403	-154.643531	2533.512749	-233.299624	11.947944	7.043965	28.680043	41.897195	-45.000000	-45.000000	8.055597	759.101117	-3125.774053	9.436642	-160.241354	364.731225	20.080346	13.091033	-18.041499	
5.7000	90.000000	-90.000000	-90.000000	4.974597	803.065805	9.142042	-45.000000	7.688988	-44.144905	19.232116	-45.000000	-5510.267371	-1701.826726	22.777332	-157.428132	2532.208287	-268.013650	13.372956	8.611890	28.652132	41.887005	-45.000000	-45.000000	7.974973	759.216023	-3125.827183	9.421625	-159.900121	364.675830	20.944651	12.910754	-18.082905	
5.7100	90.000000	-90.000000	-90.000000	4.648376	802.942588	9.500085	-45.000000	7.617216	-43.939721	19.215031	-45.000000	-5510.274943	-1702.267774	22.638646	-159.938349	2530.995185	-299.506549	14.650427	10.061648	28.634707	41.847219	-45.000000	-45.000000	7.907926	759.278646	-3125.862051	9.397575	-159.635576	364.617479	21.537906	12.750499	-18.116777	
5.7200	90.000000	-90.000000	-90.000000	4.057933	802.847053	9.770750	-45.000000	7.547148	-43.722273	19.198846	-45.000000	-5510.267096	-1702.629891	22.521303	-162.077584	2529.908606	-326.795231	15.756965	11.302190	28.614698	41.774805	-45.000000	-45.000000	7.859423	759.269751	-3125.883706	9.346225	-159.460129	364.559128	21.890643	12.643423	-18.139690	
5.7300	90.000000	-90.000000	-90.000000	3.200598	802.760897	9.949711	-45.000000	7.496121	-43.488388	19.192709	-45.000000	-5510.249055	-1702.827209	22.472642	-163.258704	2529.240863	-343.162598	16.411410	12.062532	28.589035	41.727919	-45.000000	-45.000000	7.839811	759.240371	-3125.897443	9.321250	-159.407386	364.495721	21.810451	12.548858	-18.139192	
5.7400	90.000000	-90.000000	-90.000000	2.074662	802.668039	10.034640	-45.000000	7.443754	-43.244190	19.187424	-45.000000	-5510.209598	-1702.860963	22.468336	-163.648125	2528.914734	-350.487547	16.718162	12.341738	28.554744	41.660722	-45.000000	-45.000000	7.845438	759.160850	-3125.899879	9.294462	-159.462959	364.435173	21.459779	12.508463	-18.119842	
5.7500	90.000000	-90.000000	-90.000000	0.679725	802.554886	10.025722	-45.000000	7.401135	-42.985897	19.192030	-45.000000	-5510.159545	-1702.779793	22.516778	-163.354664	2528.899834	-350.324610	16.713580	12.308821	28.513790	41.605960	-45.000000	-45.000000	7.875025	759.080250	-3125.896483	9.309067	-159.586656	364.380303	20.931656	12.442522	-18.103226	
5.7600	90.000000	-90.000000	-90.000000	-0.983792	802.410888	9.925247	-45.000000	7.356181	-42.726317	19.197505	-45.000000	-5510.083998	-1702.673183	22.565778	-163.014532	2528.891478	-350.138075	16.727684	12.222414	28.460743	41.531476	-45.000000	-45.000000	7.925579	758.968353	-3125.890037	9.334396	-159.731802	364.346095	20.519138	12.396649	-18.102319	
